<?xml version="1.0" standalone="no"?>
<!DOCTYPE svg PUBLIC "-//W3C//DTD SVG 20010904//EN"
 "http://www.w3.org/TR/2001/REC-SVG-20010904/DTD/svg10.dtd">
<svg version="1.0" xmlns="http://www.w3.org/2000/svg"
 width="795.000000pt" height="553.000000pt" viewBox="0 0 795.000000 553.000000"
 preserveAspectRatio="xMidYMid meet">

<g transform="translate(0.000000,553.000000) scale(0.100000,-0.100000)"
fill="#000000" stroke="none">
<path d="M3938 5154 c-88 -21 -193 -81 -249 -141 -38 -40 -116 -179 -134 -238
-39 -126 -49 -200 -49 -365 -1 -383 77 -590 419 -1115 215 -330 296 -543 335
-877 11 -94 -5 -257 -34 -349 -20 -64 -72 -162 -99 -186 -84 -77 -204 -96
-301 -47 -64 32 -79 45 -133 119 -25 33 -58 68 -75 77 -29 16 -33 16 -67 -2
-42 -21 -61 -55 -61 -106 0 -116 182 -285 339 -314 266 -49 509 114 595 400
45 149 58 380 31 567 -46 325 -131 518 -435 993 -230 359 -303 562 -303 850 0
155 16 248 62 342 64 134 145 193 266 193 91 0 155 -34 233 -123 31 -35 66
-68 77 -72 52 -19 135 45 135 105 0 70 -116 207 -216 255 -97 47 -228 61 -336
34z"/>
<path d="M3101 5146 c-52 -29 -50 -6 -51 -823 0 -470 -4 -772 -10 -787 l-10
-26 -552 0 c-534 0 -554 -1 -586 -20 -83 -51 -95 -147 -22 -185 44 -23 1666
-23 1710 0 40 21 60 53 60 98 0 86 -41 107 -212 107 -66 0 -128 5 -139 10 -19
10 -19 30 -19 786 0 845 2 823 -56 844 -35 14 -84 12 -113 -4z"/>
<path d="M4769 5145 c-52 -28 -54 -49 -51 -429 2 -192 8 -360 13 -372 11 -30
58 -54 105 -54 28 0 44 8 70 34 l34 34 0 372 0 372 -29 29 c-24 23 -38 29 -73
29 -24 -1 -55 -7 -69 -15z"/>
<path d="M4203 4099 c-68 -14 -103 -57 -103 -127 0 -51 24 -79 75 -90 22 -5
147 -8 279 -8 151 1 240 -3 242 -9 9 -27 15 -422 20 -1264 4 -773 7 -928 19
-951 14 -27 59 -50 97 -50 29 0 76 27 90 53 10 17 14 254 18 1121 l5 1099 561
-2 c469 -2 568 0 596 12 79 33 103 119 50 178 l-28 31 -669 4 c-369 3 -795 5
-947 7 -152 1 -290 -1 -305 -4z"/>
<path d="M1861 4061 c-27 -25 -31 -36 -31 -80 0 -67 28 -95 102 -105 28 -4
234 -4 457 0 426 7 447 9 471 53 14 27 12 102 -3 122 -29 38 -45 39 -510 39
l-455 0 -31 -29z"/>
<path d="M5183 3484 c-41 -32 -60 -93 -42 -136 24 -58 25 -58 519 -58 440 0
453 1 481 21 66 47 57 153 -17 184 -31 13 -102 15 -473 15 l-436 0 -32 -26z"/>
<path d="M1879 2887 c-68 -46 -78 -110 -25 -163 l34 -34 952 0 c946 0 953 0
986 21 67 41 69 133 4 177 l-33 22 -942 0 -942 0 -34 -23z"/>
<path d="M5194 2891 c-43 -26 -64 -59 -64 -99 0 -44 14 -68 50 -87 25 -13 97
-15 481 -15 l451 0 34 34 c28 28 34 41 34 78 0 46 -18 71 -67 97 -15 8 -154
11 -455 11 -409 0 -435 -1 -464 -19z"/>
<path d="M3086 2496 l-36 -33 0 -402 0 -403 29 -29 c57 -57 158 -24 181 59 15
54 12 717 -3 762 -14 40 -67 80 -108 80 -18 0 -40 -12 -63 -34z"/>
<path d="M3834 1038 c-5 -7 -8 -157 -6 -351 l3 -338 37 3 c29 2 38 8 40 25 l3
21 51 -26 c121 -63 262 -10 315 117 22 52 20 158 -4 211 -28 61 -56 85 -135
110 l-67 21 -51 -25 c-29 -14 -60 -26 -70 -26 -10 0 -22 -6 -27 -12 -4 -7 -10
52 -13 132 l-5 145 -31 3 c-17 2 -35 -3 -40 -10z m296 -310 c56 -29 80 -74 80
-148 0 -104 -53 -166 -143 -164 -63 1 -111 24 -138 67 -16 26 -19 46 -17 109
3 70 6 80 33 108 17 18 39 36 50 40 36 16 90 10 135 -12z"/>
<path d="M7293 1038 c-5 -9 -8 -515 -3 -680 0 -5 18 -8 40 -8 l40 0 0 111 c0
61 4 109 8 107 9 -4 115 -118 159 -172 29 -35 37 -40 87 -44 31 -2 56 -1 56 3
0 7 -29 40 -164 185 -18 19 -36 40 -40 47 -4 8 32 55 94 122 105 114 109 130
33 110 -41 -11 -63 -33 -120 -118 -34 -49 -86 -86 -105 -75 -5 3 -8 99 -8 215
l0 209 -34 0 c-19 0 -38 -6 -43 -12z"/>
<path d="M306 957 c-15 -11 -16 -43 -14 -307 l3 -295 161 -3 c176 -3 184 0
164 52 -9 24 -11 25 -97 19 -53 -3 -99 -1 -115 6 -28 10 -28 12 -28 100 l0 90
108 3 107 3 0 40 0 40 -107 3 -106 3 -7 62 c-13 117 -19 112 123 115 l122 3 0
30 c0 16 -6 31 -12 33 -7 3 -74 7 -149 10 -98 3 -141 2 -153 -7z"/>
<path d="M2700 964 c-87 -36 -140 -96 -140 -161 0 -80 43 -128 161 -181 75
-34 109 -70 109 -116 0 -77 -62 -105 -172 -78 l-70 16 -19 -23 c-11 -13 -18
-29 -16 -35 6 -20 81 -38 158 -39 62 -1 83 4 119 24 66 37 85 69 85 144 0 96
-14 110 -179 187 -27 13 -58 35 -70 51 -26 35 -25 93 2 119 27 27 96 34 152
14 50 -17 70 -9 70 30 0 17 -8 28 -27 35 -33 12 -142 21 -163 13z"/>
<path d="M4962 954 c-15 -10 -22 -24 -20 -37 3 -20 10 -22 88 -27 79 -5 85 -6
91 -30 4 -14 7 -134 8 -267 l1 -243 40 0 40 0 2 268 3 267 93 3 92 3 0 30 c0
44 -26 49 -233 49 -151 0 -186 -3 -205 -16z"/>
<path d="M887 809 c-29 -15 -38 -25 -35 -42 2 -17 9 -21 28 -19 135 16 154 14
189 -15 27 -23 34 -36 35 -68 1 -45 14 -41 -110 -34 -54 3 -130 -34 -155 -75
-23 -38 -25 -106 -3 -147 29 -58 146 -79 212 -39 38 24 52 25 52 6 0 -16 21
-26 56 -26 33 0 37 24 32 203 -5 176 -14 202 -84 246 -58 37 -157 41 -217 10z
m198 -254 c34 -33 33 -76 -3 -116 -24 -27 -35 -31 -81 -32 -46 -2 -56 1 -77
26 -29 34 -33 96 -6 119 24 22 40 26 95 27 38 1 53 -4 72 -24z"/>
<path d="M1525 821 c-74 -18 -105 -58 -105 -135 0 -58 26 -89 110 -130 35 -17
73 -43 83 -57 17 -24 18 -30 6 -55 -18 -36 -59 -47 -126 -33 -62 14 -86 7 -81
-23 7 -50 162 -60 230 -15 45 30 70 82 64 130 -6 51 -25 71 -94 97 -63 23 -93
45 -111 77 -15 30 -14 40 9 63 22 22 89 27 133 11 21 -8 26 -6 36 15 17 37 14
42 -26 53 -42 12 -83 13 -128 2z"/>
<path d="M3161 813 c-24 -16 -24 -16 -19 -182 5 -134 9 -174 24 -206 27 -56
72 -79 152 -78 55 0 70 5 108 32 l44 31 0 -24 c0 -19 7 -24 37 -29 20 -4 40
-4 45 -1 4 3 8 108 8 234 l0 230 -24 6 c-13 3 -33 1 -44 -5 -23 -12 -34 -96
-31 -248 2 -116 -8 -138 -60 -147 -150 -25 -171 3 -171 227 0 180 -10 202 -69
160z"/>
<path d="M4591 817 c-19 -7 -50 -26 -68 -43 -30 -28 -33 -37 -33 -85 1 -31 7
-62 15 -73 8 -11 52 -38 97 -60 77 -38 83 -43 86 -74 7 -67 -47 -93 -135 -65
-54 17 -56 17 -69 -2 -8 -11 -13 -24 -11 -30 8 -23 64 -40 132 -39 111 1 165
39 173 124 6 68 -12 91 -103 135 -72 35 -115 73 -115 101 0 45 72 66 148 45
30 -9 33 -7 47 20 15 29 15 30 -12 40 -42 16 -114 19 -152 6z"/>
<path d="M5758 805 c-26 -14 -49 -29 -53 -35 -9 -15 -25 -2 -25 20 0 21 -29
34 -54 24 -14 -5 -16 -32 -16 -235 l0 -229 39 0 39 0 4 143 c4 188 28 237 121
256 28 6 32 11 35 44 3 33 1 37 -20 37 -13 -1 -44 -12 -70 -25z"/>
<path d="M6165 818 c-22 -6 -50 -12 -63 -14 -30 -6 -39 -31 -19 -51 14 -14 22
-14 61 -3 56 15 130 8 155 -15 25 -22 45 -71 37 -90 -4 -11 -22 -15 -76 -15
-55 0 -83 -6 -124 -25 -58 -28 -74 -52 -83 -126 -5 -43 -3 -50 29 -85 33 -35
40 -38 101 -42 55 -4 73 -1 103 17 29 18 39 19 45 9 5 -7 9 -16 9 -20 0 -5 18
-8 40 -8 l40 0 0 175 c0 229 -12 258 -116 290 -55 16 -80 17 -139 3z m156
-255 c5 -5 11 -29 12 -52 2 -61 -34 -94 -103 -95 -45 -1 -55 3 -76 27 -13 15
-24 38 -24 50 0 29 26 66 54 78 26 11 123 6 137 -8z"/>
<path d="M6855 816 c-80 -23 -144 -74 -179 -143 -18 -36 -21 -120 -5 -176 14
-51 64 -106 119 -130 90 -40 275 -15 268 37 -3 20 -9 21 -115 22 -95 1 -116 4
-133 19 -89 80 -85 219 7 281 44 29 100 36 162 20 51 -13 53 -13 68 10 22 34
11 50 -41 63 -54 13 -97 12 -151 -3z"/>
<path d="M1883 805 c-3 -9 27 -86 67 -173 119 -257 121 -263 109 -307 -16 -56
-68 -105 -112 -105 -19 0 -45 -8 -57 -18 -20 -16 -21 -19 -6 -31 23 -20 106
-18 141 3 46 27 76 78 140 236 32 80 82 201 111 269 30 69 54 129 54 133 0 13
-44 9 -66 -7 -12 -8 -26 -27 -32 -42 -6 -15 -25 -68 -43 -118 -29 -80 -73
-155 -90 -155 -4 0 -18 30 -32 68 -45 119 -93 231 -107 247 -16 20 -69 20 -77
0z"/>
</g>
</svg>
